HIERARCHY
ROOT Hips
{
	OFFSET 0.000000 0.000000 0.000000
	CHANNELS 6 Xposition Yposition Zposition Xrotation Yrotation Zrotation
	JOINT LeftUpLeg_virtual
	{
		OFFSET 0.000000 0.000000 0.000000
		CHANNELS 3 Xrotation Yrotation Zrotation
		JOINT LeftUpLeg
		{
			OFFSET 15.427100 -6.655098 0.678600
			CHANNELS 3 Xrotation Yrotation Zrotation
			JOINT LeftLeg
			{
				OFFSET 4.081073 -39.591068 13.024000
				CHANNELS 3 Xrotation Yrotation Zrotation
				JOINT LeftFoot
				{
					OFFSET -4.081074 -37.707932 -15.979700
					CHANNELS 3 Xrotation Yrotation Zrotation
					JOINT LeftToeBase
					{
						OFFSET 5.346399 -15.068900 20.645000
						CHANNELS 3 Xrotation Yrotation Zrotation
						JOINT LeftToe_End
						{
							OFFSET 2.754700 0.931300 11.300900
							CHANNELS 3 Xrotation Yrotation Zrotation
							End Site
							{
								OFFSET 0 0 0
							}
						}
					}
				}
			}
		}
	}
	JOINT RightUpLeg_virtual
	{
		OFFSET 0.000000 0.000000 0.000000
		CHANNELS 3 Xrotation Yrotation Zrotation
		JOINT RightUpLeg
		{
			OFFSET -15.569500 -6.655098 0.678600
			CHANNELS 3 Xrotation Yrotation Zrotation
			JOINT RightLeg
			{
				OFFSET -4.081825 -39.591045 13.023800
				CHANNELS 3 Xrotation Yrotation Zrotation
				JOINT RightFoot
				{
					OFFSET 4.081824 -37.707954 -15.979600
					CHANNELS 3 Xrotation Yrotation Zrotation
					JOINT RightToeBase
					{
						OFFSET -5.346400 -15.068900 20.645000
						CHANNELS 3 Xrotation Yrotation Zrotation
						JOINT RightToe_End
						{
							OFFSET -2.754700 0.931300 11.300900
							CHANNELS 3 Xrotation Yrotation Zrotation
							End Site
							{
								OFFSET 0 0 0
							}
						}
					}
				}
			}
		}
	}
	JOINT Spine_virtual
	{
		OFFSET 0.000000 0.000000 0.000000
		CHANNELS 3 Xrotation Yrotation Zrotation
		JOINT Spine
		{
			OFFSET -0.279200 12.230698 -2.892100
			CHANNELS 3 Xrotation Yrotation Zrotation
			JOINT Spine1
			{
				OFFSET -0.232667 10.192268 -1.242267
				CHANNELS 3 Xrotation Yrotation Zrotation
				JOINT Spine1_split
				{
					OFFSET -0.232667 10.192268 -1.242267
					CHANNELS 3 Xrotation Yrotation Zrotation
					JOINT Spine2
					{
						OFFSET -0.232667 10.192268 -1.242267
						CHANNELS 3 Xrotation Yrotation Zrotation
						JOINT Neck_virtual
						{
							OFFSET 0.000000 0.000000 0.000000
							CHANNELS 3 Xrotation Yrotation Zrotation
							JOINT Neck
							{
								OFFSET -0.418800 17.814194 8.416900
								CHANNELS 3 Xrotation Yrotation Zrotation
								JOINT Head
								{
									OFFSET 0.000000 7.031097 3.806800
									CHANNELS 3 Xrotation Yrotation Zrotation
									JOINT HeadTop_End
									{
										OFFSET 0.000000 24.646606 12.978600
										CHANNELS 3 Xrotation Yrotation Zrotation
										End Site
										{
											OFFSET 0 0 0
										}
									}
								}
							}
						}
						JOINT LeftShoulder_virtual
						{
							OFFSET 0.000000 0.000000 0.000000
							CHANNELS 3 Xrotation Yrotation Zrotation
							JOINT LeftShoulder
							{
								OFFSET 8.476499 7.247704 -3.868750
								CHANNELS 3 Xrotation Yrotation Zrotation
								JOINT LeftShoulder_split
								{
									OFFSET 8.476499 7.247704 -3.868750
									CHANNELS 3 Xrotation Yrotation Zrotation
									JOINT LeftArm
									{
										OFFSET 9.308998 -2.777710 0.208600
										CHANNELS 3 Xrotation Yrotation Zrotation
										JOINT LeftForeArm
										{
											OFFSET 29.972298 0.000000 0.000000
											CHANNELS 3 Xrotation Yrotation Zrotation
											JOINT LeftHand
											{
												OFFSET 26.026505 0.000000 0.000000
												CHANNELS 3 Xrotation Yrotation Zrotation
												End Site
												{
													OFFSET 0 0 0
												}
											}
										}
									}
								}
							}
						}
						JOINT RightShoulder_virtual
						{
							OFFSET 0.000000 0.000000 0.000000
							CHANNELS 3 Xrotation Yrotation Zrotation
							JOINT RightShoulder
							{
								OFFSET -7.570500 7.247704 -3.868750
								CHANNELS 3 Xrotation Yrotation Zrotation
								JOINT RightShoulder_split
								{
									OFFSET -7.570500 7.247704 -3.868750
									CHANNELS 3 Xrotation Yrotation Zrotation
									JOINT RightArm
									{
										OFFSET -9.308998 -2.777710 0.208500
										CHANNELS 3 Xrotation Yrotation Zrotation
										JOINT RightForeArm
										{
											OFFSET -29.972300 0.000000 0.000000
											CHANNELS 3 Xrotation Yrotation Zrotation
											JOINT RightHand
											{
												OFFSET -26.026505 0.000000 0.000000
												CHANNELS 3 Xrotation Yrotation Zrotation
												End Site
												{
													OFFSET 0 0 0
												}
											}
										}
									}
								}
							}
						}
					}
				}
			}
		}
	}
}
MOTION
Frames: 6
Frame Time: 0.03333333
203.026978 28.923771 -35.936142 0.000000 0.000000 0.000000 -127.310819 -21.299492 58.943925 -79.026914 9.848918 5.580703 100.372833 -16.001132 -2.131912 15.321363 2.864951 7.504016 15.734997 -1.975539 3.268521 0.000000 0.000000 0.000000 -128.195547 -24.398494 56.858036 -76.013694 -0.152119 7.223292 56.780063 4.395162 6.338504 -3.636230 0.160878 10.705945 -18.189736 -0.257814 0.755001 0.000000 0.000000 0.000000 -135.148571 -23.190867 68.799696 13.151934 8.347427 5.764411 23.207205 5.365181 1.725684 -1.248008 1.973534 1.714195 0.000000 0.000000 0.000000 20.326653 5.309464 1.096473 53.547877 -4.544428 -8.424798 -24.246470 -17.231773 13.207795 0.000000 0.000000 0.000000 21.981468 6.452181 1.757350 2.545739 1.513032 4.553845 5.950222 -7.892343 1.228902 -34.890761 -16.901817 -5.093081 175.388166 -43.929847 177.569236 0.000000 0.000000 0.000000 17.980721 5.172322 2.897650 -1.955091 -4.507984 -3.104308 10.299621 -6.478226 6.331766 -76.022615 3.293293 46.935503 -164.454904 61.820848 159.273946 0.000000 0.000000 0.000000 
207.977509 24.391411 -37.645790 0.000000 0.000000 0.000000 -129.036917 -8.922597 69.005633 -75.428197 19.143004 11.966018 98.681624 -13.448266 -3.482482 10.591683 7.101921 8.087828 15.840754 -2.273888 3.283463 0.000000 0.000000 0.000000 -128.387571 -12.472547 64.445294 -75.547575 -0.069814 4.636738 60.018662 4.482387 7.723013 -8.664101 1.315049 13.814753 -15.297370 0.455837 -0.220980 0.000000 0.000000 0.000000 -136.233737 -12.272617 79.029032 13.785300 6.335441 4.678047 22.707529 5.697964 2.467123 -0.443706 0.961500 1.962721 0.000000 0.000000 0.000000 19.447330 5.753176 1.766465 51.785258 -4.309148 -10.161549 -21.205101 -14.302700 14.073364 0.000000 0.000000 0.000000 22.010158 6.372701 2.364731 1.850708 3.113705 2.666169 5.714163 -7.690632 0.166202 -22.642420 -20.545983 -10.106303 173.270370 -48.167956 176.064464 0.000000 0.000000 0.000000 17.683638 5.490690 3.943714 -2.694394 -5.103353 -4.755374 9.356991 -2.960731 4.689328 -61.026149 -3.320143 45.746500 -155.343732 73.433604 151.007519 0.000000 0.000000 0.000000 
213.420914 20.437778 -39.467690 0.000000 0.000000 0.000000 -132.807195 1.933724 80.595570 -75.737816 31.300633 19.364319 97.696594 -9.381186 -4.600619 5.563222 10.969351 8.920269 14.018851 -2.462839 3.040459 0.000000 0.000000 0.000000 -130.494575 -1.185238 73.224136 -74.160637 -0.379735 2.527098 60.644457 3.621125 9.152101 -12.892236 1.617805 15.967507 -11.946241 0.947349 -1.195828 0.000000 0.000000 0.000000 -139.627822 -2.435140 89.995160 14.096524 4.455756 3.147815 21.914408 5.988488 2.897565 0.075414 -0.070996 1.993167 0.000000 0.000000 0.000000 19.270117 6.154839 2.216569 49.181238 -3.645444 -10.710457 -20.079861 -12.682171 14.799446 0.000000 0.000000 0.000000 22.286482 6.370439 2.786534 1.276700 3.310024 -0.481977 5.671520 -6.217066 0.976763 -13.811308 -22.165338 -13.435346 171.236176 -55.035499 173.718499 0.000000 0.000000 0.000000 17.633383 5.810288 4.784352 -3.144984 -3.636847 -5.230852 8.460633 1.280204 3.435440 -47.753602 -4.355301 45.053895 -59.006114 83.270661 55.812621 0.000000 0.000000 0.000000 
219.554550 17.686523 -40.371910 0.000000 0.000000 0.000000 -138.314377 11.570559 93.660888 -81.311954 41.769339 26.663237 98.136178 -5.185361 -5.227161 2.226028 13.549273 9.043148 10.930257 -2.537329 2.413329 0.000000 0.000000 0.000000 -134.610188 8.616097 83.008676 -71.266856 0.136548 1.477680 58.702812 1.618006 10.583037 -15.812313 1.129197 16.472075 -9.372197 1.108525 -1.884284 0.000000 0.000000 0.000000 -145.125291 6.049353 102.201384 13.910653 3.244312 1.497277 20.908150 6.327070 2.939602 -0.044038 -0.418549 1.623481 0.000000 0.000000 0.000000 19.737208 6.610326 2.330766 45.627112 -2.278172 -9.590938 -21.464631 -12.374576 15.592456 0.000000 0.000000 0.000000 22.623299 6.608066 2.885192 0.789408 2.299953 -4.086351 5.100114 -4.885585 2.843259 -7.054310 -21.635080 -15.306012 168.745684 -63.584546 170.121188 0.000000 0.000000 0.000000 17.646767 6.131346 5.220752 -3.395330 -1.146740 -4.747547 8.393520 5.363914 2.044999 -38.061072 -2.146156 43.195896 -9.199036 65.449372 7.333283 0.000000 0.000000 0.000000 
226.196884 16.540092 -40.997757 0.000000 0.000000 0.000000 -145.891119 19.008485 107.786457 -89.653097 47.966513 31.946178 100.425398 -1.342014 -5.789066 -0.274362 14.507544 10.174489 7.158579 -2.422340 1.393855 0.000000 0.000000 0.000000 -140.736471 16.330765 93.822231 -67.734481 1.955302 1.466070 56.074306 -0.404618 11.421595 -16.928146 0.658058 16.040906 -8.226183 1.142115 -2.245273 0.000000 0.000000 0.000000 -152.210861 12.155402 114.391236 13.393314 2.961145 0.153861 19.821720 6.781622 2.709243 -0.608250 -0.588490 1.847918 0.000000 0.000000 0.000000 20.697223 7.060693 2.091264 40.717869 -0.210334 -7.278571 -25.131947 -12.607041 16.367143 0.000000 0.000000 0.000000 22.796713 7.083363 2.673230 0.276101 0.260131 -7.350837 3.140034 -3.492516 3.511076 -1.590791 -20.334202 -16.071410 163.983266 -72.315154 163.763416 0.000000 0.000000 0.000000 17.651605 6.481146 5.241231 -3.425391 1.516709 -3.526318 8.586437 7.757625 0.190227 -32.682626 0.409990 40.320249 -2.419169 47.854167 1.803255 0.000000 0.000000 0.000000 
233.505493 16.969017 -40.803726 0.000000 0.000000 0.000000 -155.026293 23.631580 121.738027 -95.406630 50.779851 31.805029 104.230975 1.786007 -6.618277 -3.526558 14.251733 13.081995 4.659497 -2.157269 -0.105300 0.000000 0.000000 0.000000 -148.986315 22.036415 106.333553 -65.227029 5.500825 1.404414 54.755496 -1.307791 11.893249 -15.353997 0.611125 16.103329 -9.334421 1.129809 -2.315029 0.000000 0.000000 0.000000 -160.036673 16.011777 126.391544 12.878155 3.581857 -0.710444 18.956621 7.246407 2.397247 -1.317248 -0.991213 2.173212 0.000000 0.000000 0.000000 22.072824 7.480233 1.676977 34.385932 2.437455 -5.160499 -30.488373 -12.257572 16.988043 0.000000 0.000000 0.000000 22.816196 7.621728 2.352135 -0.274641 -2.055195 -9.698219 1.171645 -1.406460 2.111794 3.495503 -19.534008 -15.278969 151.653094 -80.081147 149.589872 0.000000 0.000000 0.000000 17.637480 6.760894 5.053515 -3.318757 3.647633 -2.108974 9.039321 8.851051 -2.177690 -32.644534 0.954732 37.705759 -0.017326 35.829297 0.371540 0.000000 0.000000 0.000000 
